<svg width="14" height="12" viewBox="0 0 14 12" fill="none" xmlns="http://www.w3.org/2000/svg">
<path d="M2.13413 7.75473V9.77816H4.15757L10.1252 3.81051L8.10179 1.78707L2.13413 7.75473ZM11.6898 2.24582C11.8999 2.03629 11.9004 1.69613 11.6909 1.48613L11.6898 1.48504L10.4271 0.222383C10.2176 0.0122272 9.87741 0.0117583 9.66741 0.22129L9.66632 0.222383L8.67898 1.20973L10.7024 3.23316L11.6898 2.24582ZM1.05491 10.856H12.9254C13.2851 10.856 13.4649 11.0358 13.4649 11.3955C13.4649 11.7552 13.2851 11.935 12.9254 11.935H1.05491C0.695225 11.935 0.515381 11.7552 0.515381 11.3955C0.515381 11.0358 0.695225 10.856 1.05491 10.856Z" fill="#7288AA"/>
</svg>
